<?xml version="1.0" encoding="iso-8859-1"?>
<!-- Generator: Adobe Illustrator 18.1.1, SVG Export Plug-In . SVG Version: 6.00 Build 0)  -->
<svg version="1.0" id="Layer_1" xmlns="http://www.w3.org/2000/svg" xmlns:xlink="http://www.w3.org/1999/xlink" x="0px" y="0px"
	 viewBox="0 0 200 200" enable-background="new 0 0 200 200" xml:space="preserve">
<circle fill="#FFFFFF" cx="100" cy="100" r="82.2"/>
<circle cx="100" cy="100" r="79"/>
<path fill="#FFCD05" d="M182.8,67.7c-2.9-3.7-9.4-5.6-19.7-5.6h-43.6c-0.8,0-1.6,0.3-2.5,0.9c-0.9,0.6-1.6,1.3-2,2.1l-9.7,18
	l-9.7,18.2l8.1-25.1l0.1-10.4c0-0.9-0.2-1.8-0.7-2.5c-0.5-0.7-1.5-1.1-2.9-1.1H70.1c-1.4,0-2.6,0.4-3.6,1.1
	c-1.1,0.7-1.9,1.6-2.5,2.5l-48,69.2l-0.3,0.7c-0.2,0.6-0.2,1.2,0.1,1.7c0.3,0.5,0.8,0.7,1.4,0.7h20.5c2.3,0,4.4-1.2,6.2-3.7l5.4-7.6
	h26.4l0,7.6c0,1.7,0.6,2.8,1.7,3.3c0.3,0.2,0.7,0.4,1.2,0.4h0.6h20.5h23.5c10,0,18.6-2,25.9-5.9c7.3-3.9,13.2-9.9,17.5-17.9
	c2-3.8,2.8-7.1,2.4-10c-0.4-2.9-1.8-4.8-4.2-5.7c2.4-0.6,5.2-2.2,8.4-4.7c3.2-2.5,5.7-5.4,7.6-8.9l0.2-0.3
	C185.1,77,185.6,71.4,182.8,67.7z M77.5,105.5H62.1L77.8,83L77.5,105.5z M137.6,113.8l-0.1,0.1c-0.7,1.4-1.8,2.6-3.3,3.7
	c-1.4,1.1-3,1.7-4.6,1.7h-15.7l5.7-10.6h15.7c1.5,0,2.5,0.5,2.8,1.5C138.5,111.2,138.3,112.4,137.6,113.8z M151.1,85.5
	c-0.7,1.3-1.7,2.5-3,3.5c-1.3,1-2.7,1.6-4.2,1.6h-14.5l5.3-9.9h14.5c1.4,0,2.3,0.5,2.5,1.4C152,83.1,151.8,84.2,151.1,85.5z"/>
</svg>
